<svg width="115" height="103" viewBox="0 0 115 103" fill="none" xmlns="http://www.w3.org/2000/svg">
<g clip-path="url(#clip0_5_155)">
<path d="M42.7366 49.7737H33.1532V59.357H42.7366V49.7737ZM61.9032 49.7737H52.3199V59.357H61.9032V49.7737ZM81.0699 49.7737H71.4866V59.357H81.0699V49.7737ZM90.6532 16.232H85.8616V6.64865H76.2782V16.232H37.9449V6.64865H28.3616V16.232H23.5699C18.2512 16.232 14.0345 20.5445 14.0345 25.8153L13.9866 92.8987C13.9866 98.1695 18.2512 102.482 23.5699 102.482H90.6532C95.9241 102.482 100.237 98.1695 100.237 92.8987V25.8153C100.237 20.5445 95.9241 16.232 90.6532 16.232ZM90.6532 92.8987H23.5699V40.1903H90.6532V92.8987Z" fill="black"/>
</g>
<defs>
<clipPath id="clip0_5_155">
<rect width="115" height="103" fill="white"/>
</clipPath>
</defs>
</svg>
