<svg width="29" height="30" viewBox="0 0 29 30" fill="none" xmlns="http://www.w3.org/2000/svg">
<g clip-path="url(#clip0_16_62)">
<path d="M9.12311 27.1875C20.0638 27.1875 26.0496 17.8084 26.0496 9.67739C26.0496 9.41372 26.0439 9.14418 26.0326 8.88051C27.197 8.00939 28.2019 6.93038 29 5.69418C27.9155 6.19331 26.7642 6.51929 25.5851 6.66098C26.8265 5.8912 27.7561 4.6819 28.2014 3.25727C27.0335 3.97326 25.7563 4.47833 24.4246 4.75082C23.5273 3.76451 22.3409 3.11146 21.0488 2.89262C19.7567 2.67379 18.4309 2.90137 17.2764 3.54018C16.1219 4.17899 15.203 5.19344 14.6617 6.4267C14.1205 7.65996 13.987 9.04333 14.2819 10.3629C11.9172 10.2402 9.60376 9.60469 7.49164 8.49768C5.37953 7.39068 3.51588 5.83686 2.0215 3.93696C1.26198 5.29162 1.02957 6.89462 1.3715 8.42018C1.71342 9.94573 2.60403 11.2794 3.86232 12.15C2.91768 12.119 1.99372 11.8559 1.1668 11.3825V11.4586C1.16595 12.8802 1.64103 14.2583 2.51129 15.3585C3.38155 16.4588 4.59327 17.2133 5.94047 17.4938C5.0654 17.7415 4.14698 17.7776 3.25627 17.5993C3.63642 18.8219 4.37607 19.8912 5.37197 20.658C6.36788 21.4248 7.57035 21.8508 8.81158 21.8766C6.70435 23.589 4.10129 24.5177 1.42168 24.5133C0.946472 24.5126 0.471732 24.4824 0 24.4231C2.7222 26.2297 5.88885 27.1893 9.12311 27.1875Z" fill="white"/>
</g>
<defs>
<clipPath id="clip0_16_62">
<rect width="29" height="30" fill="white"/>
</clipPath>
</defs>
</svg>
